<svg width="32" height="32" viewBox="0 0 32 32" fill="none" xmlns="http://www.w3.org/2000/svg">
<path d="M31.0526 11.5652V10.2919H30.9121L30.7716 10.1505L30.6311 10.009L15.8776 0.106102C15.5966 -0.0353675 15.3156 -0.0353675 15.175 0.106102L0.421529 10.009L0.281019 10.1505L0.14051 10.2919C0.14051 10.2919 0.14051 10.4334 0 10.4334V20.6192C0 20.6192 3.14064e-08 20.7607 0.14051 20.7607L0.281019 20.9022L0.421529 21.0436L15.0345 30.9465C15.3156 31.088 15.5966 31.088 15.7371 30.9465L30.4906 21.0436L30.6311 20.9022L30.7716 20.7607C30.7716 20.7607 30.7716 20.6192 30.9121 20.6192V20.4778L31.0526 11.5652ZM16.2991 9.72605V3.21844C16.2991 2.9355 16.4396 2.65256 16.7206 2.65256C17.0017 2.51109 17.2827 2.51109 17.4232 2.65256L28.2424 10.009C28.3829 10.1505 28.5235 10.2919 28.5235 10.5749V10.8578C28.5235 11.1408 28.3829 11.2822 28.2424 11.4237L23.3246 14.6775C23.1841 14.819 23.0436 14.819 22.9031 14.819C22.7626 14.819 22.6221 14.819 22.4815 14.6775L16.4396 10.5749C16.2991 10.4334 16.1586 10.2919 16.1586 10.009V9.72605H16.2991ZM2.66968 10.5749C2.66968 10.2919 2.81019 10.1505 2.9507 10.009L13.7699 2.65256C14.051 2.51109 14.332 2.51109 14.4725 2.65256C14.7535 2.79403 14.894 3.07697 14.894 3.21844V10.009C14.894 10.2919 14.7535 10.4334 14.613 10.5749L8.57109 14.536C8.43058 14.6775 8.29007 14.6775 8.14956 14.6775C8.00905 14.6775 7.86854 14.6775 7.72803 14.536L2.9507 11.2822C2.81019 11.1408 2.66968 10.9993 2.66968 10.7163V10.5749ZM2.24815 18.7801C2.10764 18.7801 1.96713 18.7801 1.96713 18.6387C1.68612 18.4972 1.54561 18.2142 1.54561 18.0728V13.4043C1.54561 13.1213 1.68612 12.8384 1.96713 12.8384C2.24815 12.6969 2.52917 12.6969 2.66968 12.8384L6.18242 15.2434C6.32293 15.3848 6.46344 15.5263 6.46344 15.8093C6.46344 16.0922 6.32293 16.2337 6.18242 16.3751L2.66968 18.7801C2.52917 18.6387 2.38866 18.7801 2.24815 18.7801ZM14.894 27.9757C14.894 28.2586 14.7535 28.5415 14.4725 28.5415C14.332 28.5415 14.1915 28.683 14.1915 28.683C14.051 28.683 13.9105 28.683 13.7699 28.5415L2.9507 21.1851C2.81019 21.0436 2.66968 20.9022 2.66968 20.6192C2.66968 20.3363 2.81019 20.1948 2.9507 20.0534L7.86854 16.7995C8.14956 16.6581 8.43058 16.6581 8.7116 16.7995L14.7535 20.9022C14.894 21.0436 15.0345 21.1851 15.0345 21.4681V27.9757H14.894ZM15.5966 19.6289C15.4561 19.6289 15.3156 19.6289 15.175 19.4875L10.2572 16.2337C10.1167 16.0922 9.97618 15.9507 9.97618 15.6678V15.3848C9.97618 15.1019 10.1167 14.9604 10.2572 14.819L15.175 11.5652C15.4561 11.4237 15.7371 11.4237 16.0181 11.5652L20.9359 14.819C21.0764 14.9604 21.217 15.1019 21.217 15.3848V15.6678C21.217 15.9507 21.0764 16.0922 20.9359 16.2337L16.0181 19.4875C15.8776 19.6289 15.7371 19.6289 15.5966 19.6289ZM28.2424 21.1851L17.4232 28.5415C17.2827 28.683 17.1422 28.683 17.0017 28.683C16.8612 28.683 16.7206 28.683 16.7206 28.5415C16.4396 28.4001 16.2991 28.1171 16.2991 27.9757V21.4681C16.2991 21.1851 16.4396 21.0436 16.5801 20.9022L22.6221 16.7995C22.9031 16.6581 23.1841 16.6581 23.4651 16.7995L28.3829 20.0534C28.5235 20.1948 28.664 20.3363 28.664 20.6192C28.5235 20.9022 28.3829 21.0436 28.2424 21.1851ZM29.6475 18.0728C29.6475 18.3557 29.507 18.6387 29.226 18.6387C29.0855 18.6387 28.945 18.7801 28.945 18.7801C28.8045 18.7801 28.664 18.7801 28.5235 18.6387L25.0107 16.2337C24.8702 16.0922 24.7297 15.9507 24.7297 15.6678C24.7297 15.3848 24.8702 15.2434 25.0107 15.1019L28.5235 12.6969C28.8045 12.5554 29.0855 12.5554 29.226 12.6969C29.507 12.8384 29.6475 13.1213 29.6475 13.2628V18.0728Z" fill="#000000"/>
</svg>
